Normalized EMG Linear Envelopes
nRows=107
nColumns=4

endheader
time	 med_gas_r	  soleus_r	 tib_ant_r	
3.14919	  0.010027	  0.010818	  0.003574	
3.22077	  0.010281	  0.010287	  0.003756	
3.29234	  0.010219	  0.009891	  0.003893	
3.36391	  0.009787	  0.009627	  0.004084	
3.43548	  0.009258	  0.009478	  0.004493	
3.50706	  0.008883	  0.009517	  0.005076	
3.57863	  0.008661	  0.009786	  0.005400	
3.6502	  0.008548	  0.010178	  0.005019	
3.72177	  0.008585	  0.010470	  0.004161	
3.79335	  0.008773	  0.010508	  0.003605	
3.86492	  0.009013	  0.010338	  0.003863	
3.93649	  0.009164	  0.010137	  0.004725	
4.00806	  0.009170	  0.010094	  0.005394	
4.07964	  0.009158	  0.010361	  0.005229	
4.15121	  0.009341	  0.010940	  0.004461	
4.22278	  0.009807	  0.011600	  0.003787	
4.29435	  0.010412	  0.012026	  0.003538	
4.36593	  0.010883	  0.012034	  0.003601	
4.4375	  0.011062	  0.011772	  0.003765	
4.50907	  0.011139	  0.011805	  0.003971	
4.58065	  0.011562	  0.012656	  0.004366	
4.65222	  0.012356	  0.013945	  0.005008	
4.72379	  0.012823	  0.014449	  0.005541	
4.79536	  0.012382	  0.013331	  0.005511	
4.86694	  0.011222	  0.010693	  0.005025	
4.93851	  0.009845	  0.007207	  0.004699	
5.01008	  0.008896	  0.005018	  0.004947	
5.08165	  0.009681	  0.009871	  0.005829	
5.15323	  0.013911	  0.030172	  0.007634	
5.2248	  0.022402	  0.071515	  0.010840	
5.29637	  0.034333	  0.133829	  0.015204	
5.36794	  0.048795	  0.212896	  0.019727	
5.43952	  0.067298	  0.297128	  0.023719	
5.51109	  0.092170	  0.363421	  0.027199	
5.58266	  0.121054	  0.389663	  0.030379	
5.65423	  0.147998	  0.378120	  0.033241	
5.72581	  0.170766	  0.356934	  0.035374	
5.79738	  0.189388	  0.353503	  0.036419	
5.86895	  0.202138	  0.374775	  0.037085	
5.94052	  0.211454	  0.412162	  0.038732	
6.0121	  0.224646	  0.451253	  0.041444	
6.08367	  0.246702	  0.479260	  0.043860	
6.15524	  0.276545	  0.496485	  0.045027	
6.22681	  0.303260	  0.513617	  0.044890	
6.29839	  0.313866	  0.534715	  0.043942	
6.36996	  0.309293	  0.557997	  0.043907	
6.44153	  0.297203	  0.585534	  0.046412	
6.5131	  0.279894	  0.615263	  0.050135	
6.58468	  0.263474	  0.634817	  0.052159	
6.65625	  0.258700	  0.633423	  0.051772	
6.72782	  0.266538	  0.616041	  0.050768	
6.7994	  0.278207	  0.602467	  0.050959	
6.87097	  0.286563	  0.606994	  0.052236	
6.94254	  0.289478	  0.626437	  0.052632	
7.01411	  0.286001	  0.650671	  0.050669	
7.08569	  0.275058	  0.666333	  0.047391	
7.15726	  0.261434	  0.663223	  0.045458	
7.22883	  0.256147	  0.654369	  0.046591	
7.3004	  0.264254	  0.662323	  0.049794	
7.37198	  0.280762	  0.682614	  0.052105	
7.44355	  0.299352	  0.691435	  0.052121	
7.51512	  0.317642	  0.681519	  0.052061	
7.58669	  0.334623	  0.663859	  0.054652	
7.65827	  0.344474	  0.648788	  0.059396	
7.72984	  0.339133	  0.641894	  0.063453	
7.80141	  0.319708	  0.641861	  0.064386	
7.87298	  0.297321	  0.644112	  0.061625	
7.94456	  0.284279	  0.651706	  0.056870	
8.01613	  0.287401	  0.670020	  0.053038	
8.0877	  0.305400	  0.700718	  0.052144	
8.15927	  0.331731	  0.742105	  0.053695	
8.23085	  0.356809	  0.782496	  0.055167	
8.30242	  0.369808	  0.803525	  0.054944	
8.37399	  0.369957	  0.795140	  0.053993	
8.44556	  0.369289	  0.762832	  0.053626	
8.51714	  0.372888	  0.720170	  0.053471	
8.58871	  0.372144	  0.679557	  0.052943	
8.66028	  0.365054	  0.655736	  0.052876	
8.73185	  0.363380	  0.658599	  0.054252	
8.80343	  0.372814	  0.673161	  0.056207	
8.875	  0.382054	  0.672034	  0.056613	
8.94657	  0.379928	  0.651027	  0.054646	
9.01815	  0.369345	  0.633412	  0.051885	
9.08972	  0.358142	  0.638818	  0.050558	
9.16129	  0.349734	  0.657942	  0.050999	
9.23286	  0.345670	  0.665358	  0.051427	
9.30444	  0.349581	  0.658111	  0.050766	
9.37601	  0.362757	  0.664340	  0.050203	
9.44758	  0.376428	  0.696887	  0.050907	
9.51915	  0.376936	  0.721258	  0.052189	
9.59073	  0.360970	  0.699450	  0.052914	
9.6623	  0.340368	  0.637959	  0.052877	
9.73387	  0.325716	  0.568653	  0.052329	
9.80544	  0.311621	  0.513455	  0.051551	
9.87702	  0.290709	  0.475667	  0.050564	
9.94859	  0.268589	  0.447010	  0.048712	
10.0202	  0.253469	  0.423680	  0.045481	
10.0917	  0.247855	  0.412956	  0.041685	
10.1633	  0.251247	  0.420659	  0.039179	
10.2349	  0.258492	  0.440235	  0.039531	
10.3065	  0.261303	  0.455669	  0.042506	
10.378	  0.255670	  0.452457	  0.045507	
10.4496	  0.243009	  0.427561	  0.045598	
10.5212	  0.226775	  0.391556	  0.042454	
10.5927	  0.214520	  0.360705	  0.038146	
10.6643	  0.216886	  0.343634	  0.034346	
10.7359	  0.234378	  0.336435	  0.031197	
